Coordinates
version=1
nRows=21
nColumns=22
inDegrees=yes

Units are S.I. units (second, meters, Newtons, ...)
If the header above contains a line with 'inDegrees', this indicates whether rotational values are in degrees (yes) or radians (no).

endheader
time	pelvis_tilt	pelvis_list	pelvis_rotation	pelvis_tx	pelvis_ty	pelvis_tz	hip_flexion_r	hip_adduction_r	hip_rotation_r	knee_angle_r	ankle_angle_r	subtalar_angle_r	hip_flexion_l	hip_adduction_l	hip_rotation_l	knee_angle_l	ankle_angle_l	subtalar_angle_l	lumbar_extension	lumbar_bending	lumbar_rotation
      2.76000000	     -2.90258404	     -6.86381641	      8.85792215	      0.20831429	      0.96835293	     -0.24925254	      9.55688233	      8.73425024	     -8.16564500	    -19.00390644	     11.09712529	      0.39561664	     24.19908370	     -6.07357059	      8.30307659	    -36.31054060	     12.76267573	      4.53061586	     -2.33898969	      6.59141844	     -2.43314656
      2.77000000	     -2.80113048	     -6.96346567	      8.97537387	      0.20254068	      0.96864573	     -0.24914326	      9.82119657	      8.79028424	     -8.29787166	    -18.95042485	     10.81262379	      0.38639795	     23.77673679	     -6.37333208	      8.14659589	    -37.63637859	     12.96699612	      4.47193998	     -2.36714576	      6.72547365	     -2.67458082
      2.78000000	     -2.70375003	     -7.07533708	      9.10617765	      0.19676028	      0.96888245	     -0.24908340	     10.10589712	      8.85106521	     -8.44253901	    -18.91906909	     10.53008065	      0.38299765	     23.33204077	     -6.70049334	      7.99360106	    -38.93000682	     13.13046153	      4.37115181	     -2.38531748	      6.86779525	     -2.93293661
      2.79000000	     -2.60928075	     -7.19889853	      9.25313971	      0.19097542	      0.96907102	     -0.24909543	     10.40671470	      8.91508701	     -8.59185797	    -18.90574863	     10.24665496	      0.38546434	     22.86081045	     -7.04880436	      7.85489035	    -40.18152220	     13.26078811	      4.23576119	     -2.39155704	      7.02381871	     -3.22715024
      2.80000000	     -2.51534375	     -7.32091903	      9.40941864	      0.18518824	      0.96922166	     -0.24915456	     10.72033101	      8.96971610	     -8.74907634	    -18.91433180	      9.97184823	      0.39882454	     22.35275068	     -7.40314352	      7.73701736	    -41.37993455	     13.36337897	      4.08816516	     -2.39227529	      7.17274721	     -3.53423676
      2.81000000	     -2.42337665	     -7.44155008	      9.57670321	      0.17940293	      0.96933732	     -0.24926577	     11.04229632	      9.01524324	     -8.91353300	    -18.93462619	      9.70258929	      0.42315114	     21.80801308	     -7.75736123	      7.65061491	    -42.51817045	     13.44321091	      3.93918090	     -2.38427065	      7.31483503	     -3.85910126
      2.82000000	     -2.33218151	     -7.55663633	      9.75151972	      0.17361625	      0.96942242	     -0.24943511	     11.37073015	      9.04720301	     -9.08042540	    -18.96799956	      9.44168772	      0.46118724	     21.22199854	     -8.10250665	      7.59979011	    -43.58887778	     13.50397874	      3.80453992	     -2.37014404	      7.44732286	     -4.19442535
      2.83000000	     -2.24104367	     -7.66620603	      9.93104827	      0.16782270	      0.96947918	     -0.24965903	     11.70626327	      9.06617767	     -9.24698782	    -19.01625926	      9.18831696	      0.51364154	     20.59232204	     -8.43508168	      7.58831427	    -44.58567359	     13.54545203	      3.69596964	     -2.35203182	      7.56886932	     -4.53873972
      2.84000000	     -2.15301090	     -7.76716342	     10.11666816	      0.16202305	      0.96950484	     -0.24994684	     12.04585682	      9.06830280	     -9.41462492	    -19.07051775	      8.94191054	      0.57871140	     19.92431789	     -8.74789988	      7.61351419	    -45.50542590	     13.56303696	      3.61414433	     -2.32587745	      7.67811216	     -4.88733024
      2.85000000	     -2.06717970	     -7.85916538	     10.30232904	      0.15621088	      0.96950108	     -0.25028931	     12.39482830	      9.05390278	     -9.58067701	    -19.14089501	      8.69977715	      0.65055493	     19.21544022	     -9.04026052	      7.67161848	    -46.34275278	     13.55371890	      3.56830907	     -2.29539179	      7.77343383	     -5.23709866
      2.86000000	     -1.98475525	     -7.94271926	     10.48700279	      0.15038698	      0.96946617	     -0.25068999	     12.75095760	      9.02348045	     -9.74747752	    -19.22106327	      8.46065903	      0.72795824	     18.47095091	     -9.31212303	      7.75444249	    -47.09738932	     13.51668674	      3.56122667	     -2.25936765	      7.85585345	     -5.59033168
      2.87000000	     -1.90587726	     -8.00994780	     10.66517261	      0.14451894	      0.96939567	     -0.25114478	     13.12212388	      8.96767501	     -9.91153125	    -19.32408902	      8.21706810	      0.80133612	     17.69828816	     -9.55547736	      7.85152265	    -47.77762109	     13.44731494	      3.59405091	     -2.22484261	      7.91852615	     -5.91858560
      2.88000000	     -1.83064733	     -8.07697766	     10.84157664	      0.13864689	      0.96930601	     -0.25166245	     13.50413855	      8.90438035	    -10.07566813	    -19.44167195	      7.98235901	      0.88217236	     16.88242279	     -9.78307926	      7.97686496	    -48.34690054	     13.35345322	      3.67572189	     -2.18225408	      7.98008429	     -6.27383503
      2.89000000	     -1.75248889	     -8.12750084	     11.02175237	      0.13270243	      0.96917724	     -0.25226477	     13.88608305	      8.81441925	    -10.23443765	    -19.56479311	      7.75903648	      0.98209225	     16.05216561	     -9.98391414	      8.10316646	    -48.85699272	     13.24857930	      3.82386353	     -2.15152936	      8.02795521	     -6.63208119
      2.90000000	     -1.68679325	     -8.16234532	     11.18571839	      0.12670618	      0.96902058	     -0.25291493	     14.29695021	      8.69744319	    -10.39203415	    -19.71893498	      7.53263981	      1.09414260	     15.19506090	    -10.15653963	      8.22773330	    -49.26329707	     13.10845498	      4.01318363	     -2.11582282	      8.05651189	     -6.96763999
      2.91000000	     -1.62686293	     -8.19254779	     11.33232433	      0.12066396	      0.96883120	     -0.25361713	     14.72533042	      8.56687612	    -10.53999451	    -19.89466075	      7.31733629	      1.27599303	     14.31666949	    -10.32452339	      8.32330188	    -49.57474253	     12.96577595	      4.32678703	     -2.07871323	      8.08290228	     -7.27940135
      2.92000000	     -1.59500965	     -8.19326666	     11.48544555	      0.11452027	      0.96859564	     -0.25439785	     15.18884558	      8.38997244	    -10.68578946	    -20.08256632	      7.08794196	      1.38261839	     13.44444876	    -10.43141317	      8.44792057	    -49.78935170	     12.75318154	      4.49829674	     -2.02306522	      8.07168033	     -7.60807564
      2.93000000	     -1.56542918	     -8.18967254	     11.63371616	      0.10832653	      0.96833076	     -0.25523277	     15.66108937	      8.20060885	    -10.82940784	    -20.28169173	      6.86792826	      1.53097483	     12.55514348	    -10.53002859	      8.55965643	    -49.90313776	     12.53256670	      4.73457918	     -1.96749234	      8.05719205	     -7.92989623
      2.94000000	     -1.54679971	     -8.17853215	     11.77117521	      0.10207132	      0.96802957	     -0.25612012	     16.14838857	      7.99282450	    -10.97358729	    -20.48686571	      6.64430490	      1.70953359	     11.66004399	    -10.60987315	      8.66490270	    -49.91635266	     12.28699501	      5.00880604	     -1.90278535	      8.03381733	     -8.23940571
      2.95000000	     -1.53321687	     -8.17530150	     11.88908609	      0.09577244	      0.96768549	     -0.25702467	     16.64570125	      7.78909497	    -11.10580066	    -20.69630045	      6.42729081	      1.98746692	     10.75757491	    -10.69186819	      8.75950188	    -49.83134760	     12.03911802	      5.39746254	     -1.83095334	      8.01481704	     -8.51131652
      2.96000000	     -1.53906446	     -8.15455271	     12.02652708	      0.08938073	      0.96729518	     -0.25801969	     17.15830105	      7.55455364	    -11.24036150	    -20.89477743	      6.18024490	      2.11038469	      9.87294396	    -10.72608488	      8.89510018	    -49.64465860	     11.71034392	      5.58100044	     -1.73909030	      7.97385111	     -8.82649472
